<svg version="1.0" xmlns="http://www.w3.org/2000/svg"
 width="666.000000pt" height="375.000000pt" viewBox="0 0 666.000000 375.000000"
 preserveAspectRatio="xMidYMid meet">

<g transform="translate(0.000000,375.000000) scale(0.100000,-0.100000)"
fill="#000000" stroke="none">
<path d="M120 2000 l0 -1070 298 0 c617 0 802 37 978 193 98 88 154 251 154
451 0 241 -110 400 -331 481 l-60 21 55 37 c192 128 263 437 151 663 -69 141
-159 211 -327 253 -126 32 -251 41 -593 41 l-325 0 0 -1070z m680 790 c101
-13 164 -37 215 -82 56 -49 76 -102 76 -196 0 -191 -102 -315 -281 -343 -36
-5 -135 -8 -220 -7 l-155 3 -3 305 c-1 168 0 310 3 317 5 16 251 17 365 3z
m80 -889 c156 -17 262 -78 312 -179 32 -66 32 -220 0 -303 -42 -107 -119 -170
-242 -200 -38 -9 -128 -13 -285 -14 l-230 0 -3 340 c-1 187 0 346 3 352 5 16
311 18 445 4z"/>
<path d="M5127 2913 c-139 -48 -179 -224 -73 -329 87 -88 221 -84 303 9 71 80
68 193 -5 270 -56 60 -142 79 -225 50z"/>
<path d="M6090 2849 c-69 -16 -135 -31 -147 -34 l-23 -5 0 -270 0 -270 -115 0
-115 0 0 -130 0 -130 115 0 115 0 2 -537 3 -538 155 0 155 0 3 538 2 537 150
0 150 0 0 130 0 130 -150 0 -150 0 -2 302 c-2 190 -7 302 -13 304 -5 1 -66
-11 -135 -27z"/>
<path d="M2330 2284 c-36 -7 -103 -32 -149 -55 -154 -76 -260 -210 -313 -394
-30 -106 -32 -334 -5 -435 52 -185 179 -344 337 -419 115 -55 186 -72 305 -72
185 0 344 76 445 213 l27 37 7 -67 c3 -37 6 -88 6 -114 l0 -48 145 0 145 0 0
670 0 671 -147 -3 -148 -3 -3 -109 -3 -108 -29 41 c-119 164 -382 247 -620
195z m295 -255 c158 -29 280 -153 316 -319 6 -29 9 -98 7 -154 -3 -90 -7 -110
-35 -167 -76 -154 -231 -241 -398 -223 -219 24 -345 182 -345 434 0 188 74
332 204 395 86 42 157 52 251 34z"/>
<path d="M4045 2286 c-248 -58 -368 -196 -353 -407 13 -182 147 -307 444 -414
209 -76 249 -106 249 -187 0 -43 -4 -53 -32 -78 -47 -42 -100 -53 -228 -47
-120 6 -198 27 -298 79 -31 17 -59 29 -62 27 -2 -3 -25 -54 -51 -114 -34 -79
-44 -113 -37 -125 15 -23 137 -66 253 -90 196 -40 410 -25 542 39 91 43 142
91 180 169 31 62 33 73 33 167 -1 85 -5 108 -25 150 -53 110 -185 200 -410
280 -204 73 -245 104 -245 190 0 92 57 127 209 126 100 0 164 -14 240 -52 33
-16 60 -28 62 -27 3 5 104 229 104 234 0 10 -86 45 -161 65 -107 28 -324 36
-414 15z"/>
<path d="M5045 2258 c-3 -7 -4 -308 -3 -668 l3 -655 160 0 160 0 0 665 0 665
-158 3 c-120 2 -159 0 -162 -10z"/>
</g>
</svg>