<svg xmlns="http://www.w3.org/2000/svg" xmlns:xlink="http://www.w3.org/1999/xlink" version="1.1" width="666px" height="375px" style="shape-rendering:geometricPrecision; text-rendering:geometricPrecision; image-rendering:optimizeQuality; fill-rule:evenodd; clip-rule:evenodd">
<g><path style="opacity:0.391" fill="#656565" d="M 78.5,67.5 C 56.1667,67.5 33.8333,67.5 11.5,67.5C 11.5,138.833 11.5,210.167 11.5,281.5C 10.5008,210.002 10.1674,138.335 10.5,66.5C 33.3395,66.1692 56.0061,66.5025 78.5,67.5 Z"/></g>
<g><path style="opacity:0.999" fill="#f9f9f9" d="M 78.5,67.5 C 93.4996,67.1621 107.5,70.4955 120.5,77.5C 121.035,79.4456 122.368,80.4456 124.5,80.5C 127.573,82.5691 129.906,85.2358 131.5,88.5C 131.738,90.4044 132.738,91.7377 134.5,92.5C 136.341,94.8485 137.674,97.5152 138.5,100.5C 138.41,103.152 139.076,105.485 140.5,107.5C 145.398,128.368 140.065,146.534 124.5,162C 122.612,163.394 120.612,164.56 118.5,165.5C 115.54,166.032 115.207,166.699 117.5,167.5C 121.845,167.837 125.845,169.171 129.5,171.5C 129.821,173.048 130.821,173.715 132.5,173.5C 137.043,175.372 140.71,178.372 143.5,182.5C 143.427,184.027 144.094,185.027 145.5,185.5C 145.738,187.404 146.738,188.738 148.5,189.5C 149.674,190.514 150.34,191.847 150.5,193.5C 151.256,197.767 152.589,201.767 154.5,205.5C 155.812,213.265 155.812,220.932 154.5,228.5C 153.313,231.946 152.646,235.613 152.5,239.5C 149.958,253.069 142.625,263.236 130.5,270C 118.655,276.462 105.989,280.128 92.5,281C 65.5021,281.5 38.5021,281.667 11.5,281.5C 11.5,210.167 11.5,138.833 11.5,67.5C 33.8333,67.5 56.1667,67.5 78.5,67.5 Z M 43.5,95.5 C 57.1845,95.3289 70.8512,95.6622 84.5,96.5C 86.3024,97.4582 88.3024,98.1249 90.5,98.5C 96.3002,100.386 100.967,103.72 104.5,108.5C 104.932,109.71 105.599,110.71 106.5,111.5C 109.289,122.982 107.955,133.982 102.5,144.5C 101.094,144.973 100.427,145.973 100.5,147.5C 99.1667,148.167 98.1667,149.167 97.5,150.5C 95.9731,150.427 94.9731,151.094 94.5,152.5C 92.1815,152.992 90.1815,153.992 88.5,155.5C 84.6403,155.808 80.9736,156.475 77.5,157.5C 77.1667,157.5 76.8333,157.5 76.5,157.5C 65.5,157.5 54.5,157.5 43.5,157.5C 43.5,136.833 43.5,116.167 43.5,95.5 Z M 84.5,184.5 C 88.6391,185.563 92.9725,186.23 97.5,186.5C 98.9303,187.537 100.597,188.204 102.5,188.5C 104.05,189.441 105.716,190.107 107.5,190.5C 107.973,191.906 108.973,192.573 110.5,192.5C 119.061,201.379 122.394,212.046 120.5,224.5C 119.388,226.599 118.721,228.933 118.5,231.5C 117.264,233.649 116.264,235.982 115.5,238.5C 114.094,238.973 113.427,239.973 113.5,241.5C 111.5,242.833 109.833,244.5 108.5,246.5C 107.508,246.328 106.842,246.662 106.5,247.5C 104.973,247.427 103.973,248.094 103.5,249.5C 102.209,249.263 101.209,249.596 100.5,250.5C 97.8478,250.41 95.5145,251.076 93.5,252.5C 76.8489,253.353 60.1822,253.687 43.5,253.5C 43.5,230.5 43.5,207.5 43.5,184.5C 57.1667,184.5 70.8333,184.5 84.5,184.5 Z"/></g>
<g><path style="opacity:0.933" fill="#797979" d="M 120.5,77.5 C 122.23,78.0256 123.564,79.0256 124.5,80.5C 122.368,80.4456 121.035,79.4456 120.5,77.5 Z"/></g>
<g><path style="opacity:0.808" fill="#8a8a8a" d="M 526.5,82.5 C 521.833,82.5 517.167,82.5 512.5,82.5C 514.684,81.7337 517.018,81.0671 519.5,80.5C 521.982,81.0671 524.316,81.7337 526.5,82.5 Z"/></g>
<g><path style="opacity:0.999" fill="#f5f5f5" d="M 511.5,82.5 C 511.833,82.5 512.167,82.5 512.5,82.5C 517.167,82.5 521.833,82.5 526.5,82.5C 529.719,82.7759 532.385,84.1093 534.5,86.5C 534.427,88.0269 535.094,89.0269 536.5,89.5C 540.934,94.2259 542.434,99.8925 541,106.5C 539.232,114.083 534.732,119.083 527.5,121.5C 521.464,121.64 515.464,121.307 509.5,120.5C 509.027,119.094 508.027,118.427 506.5,118.5C 503.027,116.363 500.694,113.363 499.5,109.5C 499.5,104.5 499.5,99.5 499.5,94.5C 499.328,93.5084 499.662,92.8417 500.5,92.5C 501.906,92.0269 502.573,91.0269 502.5,89.5C 503.911,87.086 505.911,85.4194 508.5,84.5C 510.027,84.573 511.027,83.9063 511.5,82.5 Z"/></g>
<g><path style="opacity:0.647" fill="#6a6a6a" d="M 511.5,82.5 C 511.027,83.9063 510.027,84.573 508.5,84.5C 508.973,83.0937 509.973,82.427 511.5,82.5 Z"/></g>
<g><path style="opacity:0.502" fill="#505050" d="M 534.5,86.5 C 535.906,86.9731 536.573,87.9731 536.5,89.5C 535.094,89.0269 534.427,88.0269 534.5,86.5 Z"/></g>
<g><path style="opacity:1" fill="#fcfcfc" d="M 621.5,86.5 C 622.167,106.833 622.833,127.167 623.5,147.5C 633.319,148.494 643.319,148.827 653.5,148.5C 653.5,156.833 653.5,165.167 653.5,173.5C 646.833,173.5 640.167,173.5 633.5,173.5C 631.833,173.5 630.167,173.5 628.5,173.5C 626.5,173.5 624.5,173.5 622.5,173.5C 622.5,209.167 622.5,244.833 622.5,280.5C 612.167,280.5 601.833,280.5 591.5,280.5C 591.832,244.663 591.498,208.996 590.5,173.5C 582.96,174.399 575.46,174.732 568,174.5C 567.333,165.167 567.333,155.833 568,146.5C 568.671,147.252 569.504,147.586 570.5,147.5C 577.5,147.5 584.5,147.5 591.5,147.5C 592.497,129.674 592.83,111.674 592.5,93.5C 594.786,93.405 596.786,92.7384 598.5,91.5C 601.679,90.2066 605.012,89.5399 608.5,89.5C 611.152,89.5905 613.485,88.9238 615.5,87.5C 617.435,86.8505 619.435,86.5172 621.5,86.5 Z"/></g>
<g><path style="opacity:0.702" fill="#747474" d="M 615.5,87.5 C 613.485,88.9238 611.152,89.5905 608.5,89.5C 610.515,88.0762 612.848,87.4095 615.5,87.5 Z"/></g>
<g><path style="opacity:0.695" fill="#a7a7a7" d="M 621.5,86.5 C 621.56,85.9569 621.893,85.6236 622.5,85.5C 623.5,105.822 623.833,126.156 623.5,146.5C 625.099,146.232 626.432,146.566 627.5,147.5C 626.167,147.5 624.833,147.5 623.5,147.5C 622.833,127.167 622.167,106.833 621.5,86.5 Z"/></g>
<g><path style="opacity:0.835" fill="#787878" d="M 131.5,88.5 C 133.262,89.2623 134.262,90.5956 134.5,92.5C 132.738,91.7377 131.738,90.4044 131.5,88.5 Z"/></g>
<g><path style="opacity:0.439" fill="#6f6f6f" d="M 502.5,89.5 C 502.573,91.0269 501.906,92.0269 500.5,92.5C 500.427,90.9731 501.094,89.9731 502.5,89.5 Z"/></g>
<g><path style="opacity:0.049" fill="#0c0c0c" d="M 591.5,92.5 C 591.5,110.833 591.5,129.167 591.5,147.5C 584.5,147.5 577.5,147.5 570.5,147.5C 576.979,146.509 583.646,146.176 590.5,146.5C 590.17,128.326 590.503,110.326 591.5,92.5 Z"/></g>
<g><path style="opacity:0.841" fill="#d8d8d8" d="M 598.5,91.5 C 596.786,92.7384 594.786,93.405 592.5,93.5C 592.83,111.674 592.497,129.674 591.5,147.5C 591.5,129.167 591.5,110.833 591.5,92.5C 593.806,92.0074 596.139,91.6741 598.5,91.5 Z"/></g>
<g><path style="opacity:0.843" fill="#7d7d7d" d="M 84.5,96.5 C 87.0101,96.0535 89.0101,96.7202 90.5,98.5C 88.3024,98.1249 86.3024,97.4582 84.5,96.5 Z"/></g>
<g><path style="opacity:0.884" fill="#7d7d7d" d="M 499.5,94.5 C 499.5,99.5 499.5,104.5 499.5,109.5C 496.833,104.5 496.833,99.5 499.5,94.5 Z"/></g>
<g><path style="opacity:0.765" fill="#6f6f6f" d="M 138.5,100.5 C 139.924,102.515 140.59,104.848 140.5,107.5C 139.076,105.485 138.41,103.152 138.5,100.5 Z"/></g>
<g><path style="opacity:0.851" fill="#7a7a7a" d="M 104.5,108.5 C 106.048,108.821 106.715,109.821 106.5,111.5C 105.599,110.71 104.932,109.71 104.5,108.5 Z"/></g>
<g><path style="opacity:0.325" fill="#595959" d="M 506.5,118.5 C 508.027,118.427 509.027,119.094 509.5,120.5C 507.973,120.573 506.973,119.906 506.5,118.5 Z"/></g>
<g><path style="opacity:0.933" fill="#8d8d8d" d="M 509.5,120.5 C 515.464,121.307 521.464,121.64 527.5,121.5C 525.321,122.926 522.821,123.592 520,123.5C 516.098,123.487 512.598,122.487 509.5,120.5 Z"/></g>
<g><path style="opacity:0.999" fill="#f8f8f8" d="M 292.5,162.5 C 292.738,164.404 293.738,165.738 295.5,166.5C 295.783,167.289 296.283,167.956 297,168.5C 297.499,164.179 297.666,159.846 297.5,155.5C 297.5,154.5 297.5,153.5 297.5,152.5C 298.434,151.432 298.768,150.099 298.5,148.5C 308.167,148.5 317.833,148.5 327.5,148.5C 327.5,192.5 327.5,236.5 327.5,280.5C 317.833,280.5 308.167,280.5 298.5,280.5C 298.818,275.968 298.485,271.634 297.5,267.5C 297.663,265.143 297.497,262.81 297,260.5C 282.687,279.727 263.52,287.56 239.5,284C 233.189,283.062 227.189,281.229 221.5,278.5C 221.027,277.094 220.027,276.427 218.5,276.5C 216.847,276.34 215.514,275.674 214.5,274.5C 214.027,273.094 213.027,272.427 211.5,272.5C 211.027,271.094 210.027,270.427 208.5,270.5C 207.167,269.833 206.167,268.833 205.5,267.5C 204.415,265.413 202.749,264.08 200.5,263.5C 199.5,262.167 198.5,260.833 197.5,259.5C 197.446,257.368 196.446,256.035 194.5,255.5C 186.175,242.884 182.175,228.884 182.5,213.5C 182.492,206.219 183.492,199.219 185.5,192.5C 187.411,188.767 188.744,184.767 189.5,180.5C 189.992,178.181 190.992,176.181 192.5,174.5C 193.906,174.027 194.573,173.027 194.5,171.5C 194.738,169.596 195.738,168.262 197.5,167.5C 198.906,167.027 199.573,166.027 199.5,164.5C 199.833,163.5 200.5,162.833 201.5,162.5C 204.089,161.581 206.089,159.914 207.5,157.5C 211.662,153.246 216.662,150.246 222.5,148.5C 226.162,148.277 229.495,147.277 232.5,145.5C 249.203,141.446 265.203,143.613 280.5,152C 285.134,154.811 289.134,158.311 292.5,162.5 Z M 274.5,176.5 C 274.973,177.906 275.973,178.573 277.5,178.5C 278.585,180.587 280.251,181.92 282.5,182.5C 286.385,188.277 289.718,194.277 292.5,200.5C 293.29,207.471 293.623,214.471 293.5,221.5C 292.833,225.5 292.167,229.5 291.5,233.5C 289.992,235.181 288.992,237.181 288.5,239.5C 287.094,239.973 286.427,240.973 286.5,242.5C 285.5,242.833 284.833,243.5 284.5,244.5C 282.167,246.167 280.167,248.167 278.5,250.5C 270.227,255.485 261.227,257.819 251.5,257.5C 248.344,256.566 245.011,255.899 241.5,255.5C 240.07,254.463 238.403,253.796 236.5,253.5C 235.71,252.599 234.71,251.932 233.5,251.5C 230.859,249.196 228.192,246.862 225.5,244.5C 225.573,242.973 224.906,241.973 223.5,241.5C 222.773,239.046 221.773,236.713 220.5,234.5C 220.204,232.597 219.537,230.93 218.5,229.5C 218.675,227.379 218.341,225.379 217.5,223.5C 217.344,215.471 217.677,207.471 218.5,199.5C 223.804,181.412 235.97,172.078 255,171.5C 261.829,171.999 268.329,173.666 274.5,176.5 Z"/></g>
<g><path style="opacity:0.999" fill="#f4f4f4" d="M 449.5,177.5 C 449.027,176.094 448.027,175.427 446.5,175.5C 432.78,169.036 418.78,168.202 404.5,173C 403.29,174.039 402.29,175.206 401.5,176.5C 399.974,177.492 399.307,178.992 399.5,181C 399.514,182.385 399.848,183.551 400.5,184.5C 401.129,187.64 402.796,190.14 405.5,192C 418.57,197.41 431.57,202.91 444.5,208.5C 444.821,210.048 445.821,210.715 447.5,210.5C 448.492,210.328 449.158,210.662 449.5,211.5C 449.821,213.048 450.821,213.715 452.5,213.5C 456.12,215.453 459.12,218.119 461.5,221.5C 461.427,223.027 462.094,224.027 463.5,224.5C 463.427,226.027 464.094,227.027 465.5,227.5C 466.338,227.842 466.672,228.508 466.5,229.5C 466.41,232.152 467.076,234.485 468.5,236.5C 471.682,258.625 462.682,273.458 441.5,281C 422.659,285.772 403.992,285.605 385.5,280.5C 382.495,278.723 379.162,277.723 375.5,277.5C 373.597,277.204 371.93,276.537 370.5,275.5C 370.027,274.094 369.027,273.427 367.5,273.5C 366.699,271.958 366.366,270.292 366.5,268.5C 368.989,261.528 371.989,254.861 375.5,248.5C 376.5,248.5 377.5,248.5 378.5,248.5C 385.226,252.369 392.226,255.369 399.5,257.5C 400.609,258.29 401.942,258.79 403.5,259C 409.491,259.499 415.491,259.666 421.5,259.5C 424.495,259.706 427.162,259.04 429.5,257.5C 438.351,252.402 439.684,245.736 433.5,237.5C 433.027,236.094 432.027,235.427 430.5,235.5C 426.937,234.718 423.603,233.384 420.5,231.5C 419.365,229.787 417.698,229.12 415.5,229.5C 413.421,229.029 411.421,228.363 409.5,227.5C 407.824,225.166 405.491,224.166 402.5,224.5C 398.182,223.008 394.182,221.008 390.5,218.5C 390.027,217.094 389.027,216.427 387.5,216.5C 386.738,214.738 385.404,213.738 383.5,213.5C 383.027,212.094 382.027,211.427 380.5,211.5C 375.193,208.201 371.86,203.534 370.5,197.5C 370.405,195.214 369.738,193.214 368.5,191.5C 365.107,175.977 369.774,163.644 382.5,154.5C 384.027,154.573 385.027,153.906 385.5,152.5C 385.842,151.662 386.508,151.328 387.5,151.5C 389.027,151.573 390.027,150.906 390.5,149.5C 391.391,148.89 392.391,148.557 393.5,148.5C 397.162,148.277 400.495,147.277 403.5,145.5C 423.484,141.414 442.818,143.748 461.5,152.5C 462.583,153.365 462.749,154.365 462,155.5C 458.317,163.531 454.65,171.531 451,179.5C 450.283,178.956 449.783,178.289 449.5,177.5 Z"/></g>
<g><path style="opacity:0.655" fill="#6a6a6a" d="M 102.5,144.5 C 102.573,146.027 101.906,147.027 100.5,147.5C 100.427,145.973 101.094,144.973 102.5,144.5 Z"/></g>
<g><path style="opacity:0.682" fill="#777777" d="M 232.5,145.5 C 229.495,147.277 226.162,148.277 222.5,148.5C 225.505,146.723 228.838,145.723 232.5,145.5 Z"/></g>
<g><path style="opacity:0.769" fill="#8a8a8a" d="M 403.5,145.5 C 400.495,147.277 397.162,148.277 393.5,148.5C 396.505,146.723 399.838,145.723 403.5,145.5 Z"/></g>
<g><path style="opacity:0.732" fill="#939393" d="M 314.5,147.5 C 319.032,147.182 323.366,147.515 327.5,148.5C 317.833,148.5 308.167,148.5 298.5,148.5C 298.768,150.099 298.434,151.432 297.5,152.5C 297.5,150.5 297.5,148.5 297.5,146.5C 303.227,146.26 308.894,146.593 314.5,147.5 Z"/></g>
<g><path style="opacity:0.727" fill="#aaaaaa" d="M 644.5,147.5 C 647.713,147.19 650.713,147.523 653.5,148.5C 643.319,148.827 633.319,148.494 623.5,147.5C 624.833,147.5 626.167,147.5 627.5,147.5C 633.167,146.167 638.833,146.167 644.5,147.5 Z"/></g>
<g><path style="opacity:0.482" fill="#4e4e4e" d="M 644.5,147.5 C 647.625,146.521 650.958,146.187 654.5,146.5C 654.5,155.833 654.5,165.167 654.5,174.5C 647.313,174.825 640.313,174.491 633.5,173.5C 640.167,173.5 646.833,173.5 653.5,173.5C 653.5,165.167 653.5,156.833 653.5,148.5C 650.713,147.523 647.713,147.19 644.5,147.5 Z"/></g>
<g><path style="opacity:0.185" fill="#434343" d="M 314.5,147.5 C 318.97,146.514 323.637,146.181 328.5,146.5C 328.832,191.67 328.499,236.67 327.5,281.5C 327.5,281.167 327.5,280.833 327.5,280.5C 327.5,236.5 327.5,192.5 327.5,148.5C 323.366,147.515 319.032,147.182 314.5,147.5 Z"/></g>
<g><path style="opacity:0.689" fill="#868686" d="M 503.5,146.5 C 514.996,146.023 526.329,146.523 537.5,148C 537.495,191.375 537.495,234.709 537.5,278C 537.265,278.873 536.931,279.707 536.5,280.5C 525.52,281.499 514.52,281.832 503.5,281.5C 503.5,236.5 503.5,191.5 503.5,146.5 Z"/></g>
<g><path style="opacity:0.999" fill="#fefffe" d="M 504.5,148.5 C 514.833,148.5 525.167,148.5 535.5,148.5C 535.5,192.5 535.5,236.5 535.5,280.5C 525.167,280.5 514.833,280.5 504.5,280.5C 504.5,236.5 504.5,192.5 504.5,148.5 Z"/></g>
<g><path style="opacity:0.682" fill="#727272" d="M 390.5,149.5 C 390.027,150.906 389.027,151.573 387.5,151.5C 387.973,150.094 388.973,149.427 390.5,149.5 Z"/></g>
<g><path style="opacity:0.678" fill="#787878" d="M 97.5,150.5 C 97.0269,151.906 96.0269,152.573 94.5,152.5C 94.9731,151.094 95.9731,150.427 97.5,150.5 Z"/></g>
<g><path style="opacity:0.733" fill="#808080" d="M 385.5,152.5 C 385.027,153.906 384.027,154.573 382.5,154.5C 382.973,153.094 383.973,152.427 385.5,152.5 Z"/></g>
<g><path style="opacity:0.82" fill="#7b7b7b" d="M 88.5,155.5 C 85.1552,157.217 81.4885,157.884 77.5,157.5C 80.9736,156.475 84.6403,155.808 88.5,155.5 Z"/></g>
<g><path style="opacity:0.34" fill="#7d7d7d" d="M 43.5,95.5 C 43.5,116.167 43.5,136.833 43.5,157.5C 54.5,157.5 65.5,157.5 76.5,157.5C 65.3456,158.495 54.0123,158.828 42.5,158.5C 42.1694,137.327 42.5027,116.327 43.5,95.5 Z"/></g>
<g><path style="opacity:0.875" fill="#a1a1a1" d="M 207.5,157.5 C 206.089,159.914 204.089,161.581 201.5,162.5C 202.911,160.086 204.911,158.419 207.5,157.5 Z"/></g>
<g><path style="opacity:0.843" fill="#848484" d="M 292.5,162.5 C 294.262,163.262 295.262,164.596 295.5,166.5C 293.738,165.738 292.738,164.404 292.5,162.5 Z"/></g>
<g><path style="opacity:0.153" fill="#252525" d="M 297.5,155.5 C 297.666,159.846 297.499,164.179 297,168.5C 296.283,167.956 295.783,167.289 295.5,166.5C 296.167,162.833 296.833,159.167 297.5,155.5 Z"/></g>
<g><path style="opacity:0.71" fill="#707070" d="M 199.5,164.5 C 199.573,166.027 198.906,167.027 197.5,167.5C 197.427,165.973 198.094,164.973 199.5,164.5 Z"/></g>
<g><path style="opacity:0.114" fill="#313131" d="M 118.5,165.5 C 118.167,166.167 117.833,166.833 117.5,167.5C 115.207,166.699 115.54,166.032 118.5,165.5 Z"/></g>
<g><path style="opacity:0.851" fill="#787878" d="M 129.5,171.5 C 130.71,171.932 131.71,172.599 132.5,173.5C 130.821,173.715 129.821,173.048 129.5,171.5 Z"/></g>
<g><path style="opacity:0.349" fill="#5e5e5e" d="M 194.5,171.5 C 194.573,173.027 193.906,174.027 192.5,174.5C 192.427,172.973 193.094,171.973 194.5,171.5 Z"/></g>
<g><path style="opacity:0.697" fill="#7a7a7a" d="M 590.5,173.5 C 591.498,208.996 591.832,244.663 591.5,280.5C 601.833,280.5 612.167,280.5 622.5,280.5C 622.5,244.833 622.5,209.167 622.5,173.5C 624.5,173.5 626.5,173.5 628.5,173.5C 627.081,174.451 625.415,174.784 623.5,174.5C 623.5,210.167 623.5,245.833 623.5,281.5C 612.5,281.5 601.5,281.5 590.5,281.5C 590.5,245.5 590.5,209.5 590.5,173.5 Z"/></g>
<g><path style="opacity:0.522" fill="#757575" d="M 446.5,175.5 C 448.027,175.427 449.027,176.094 449.5,177.5C 447.973,177.573 446.973,176.906 446.5,175.5 Z"/></g>
<g><path style="opacity:0.29" fill="#525252" d="M 274.5,176.5 C 276.027,176.427 277.027,177.094 277.5,178.5C 275.973,178.573 274.973,177.906 274.5,176.5 Z"/></g>
<g><path style="opacity:0.643" fill="#5a5a5a" d="M 277.5,178.5 C 279.749,179.08 281.415,180.413 282.5,182.5C 280.251,181.92 278.585,180.587 277.5,178.5 Z"/></g>
<g><path style="opacity:0.086" fill="#4e4e4e" d="M 401.5,176.5 C 400.735,179.096 400.401,181.763 400.5,184.5C 399.848,183.551 399.514,182.385 399.5,181C 399.307,178.992 399.974,177.492 401.5,176.5 Z"/></g>
<g><path style="opacity:0.663" fill="#6c6c6c" d="M 143.5,182.5 C 144.906,182.973 145.573,183.973 145.5,185.5C 144.094,185.027 143.427,184.027 143.5,182.5 Z"/></g>
<g><path style="opacity:0.957" fill="#7d7d7d" d="M 189.5,180.5 C 188.744,184.767 187.411,188.767 185.5,192.5C 185.861,188.085 187.194,184.085 189.5,180.5 Z"/></g>
<g><path style="opacity:0.443" fill="#525252" d="M 84.5,184.5 C 89.1219,184.156 93.4552,184.823 97.5,186.5C 92.9725,186.23 88.6391,185.563 84.5,184.5 Z"/></g>
<g><path style="opacity:0.639" fill="#606060" d="M 97.5,186.5 C 99.698,186.12 101.365,186.787 102.5,188.5C 100.597,188.204 98.9303,187.537 97.5,186.5 Z"/></g>
<g><path style="opacity:0.565" fill="#6e6e6e" d="M 145.5,185.5 C 147.262,186.262 148.262,187.596 148.5,189.5C 146.738,188.738 145.738,187.404 145.5,185.5 Z"/></g>
<g><path style="opacity:0.302" fill="#5d5d5d" d="M 107.5,190.5 C 109.027,190.427 110.027,191.094 110.5,192.5C 108.973,192.573 107.973,191.906 107.5,190.5 Z"/></g>
<g><path style="opacity:0.008" fill="#2f2f2f" d="M 368.5,191.5 C 369.738,193.214 370.405,195.214 370.5,197.5C 368.926,195.898 368.259,193.898 368.5,191.5 Z"/></g>
<g><path style="opacity:0.953" fill="#7c7c7c" d="M 150.5,193.5 C 152.806,197.085 154.139,201.085 154.5,205.5C 152.589,201.767 151.256,197.767 150.5,193.5 Z"/></g>
<g><path style="opacity:0.886" fill="#7d7d7d" d="M 444.5,208.5 C 445.71,208.932 446.71,209.599 447.5,210.5C 445.821,210.715 444.821,210.048 444.5,208.5 Z"/></g>
<g><path style="opacity:0.043" fill="#2e2e2e" d="M 218.5,199.5 C 217.677,207.471 217.344,215.471 217.5,223.5C 216.835,220.351 216.502,217.018 216.5,213.5C 216.3,208.563 216.967,203.896 218.5,199.5 Z"/></g>
<g><path style="opacity:0.6" fill="#5e5e5e" d="M 380.5,211.5 C 382.027,211.427 383.027,212.094 383.5,213.5C 381.973,213.573 380.973,212.906 380.5,211.5 Z"/></g>
<g><path style="opacity:0.039" fill="#242424" d="M 292.5,200.5 C 293.29,201.609 293.79,202.942 294,204.5C 294.499,210.157 294.666,215.824 294.5,221.5C 294.167,221.5 293.833,221.5 293.5,221.5C 293.623,214.471 293.29,207.471 292.5,200.5 Z"/></g>
<g><path style="opacity:0.914" fill="#7f7f7f" d="M 449.5,211.5 C 450.71,211.932 451.71,212.599 452.5,213.5C 450.821,213.715 449.821,213.048 449.5,211.5 Z"/></g>
<g><path style="opacity:0.8" fill="#787878" d="M 383.5,213.5 C 385.404,213.738 386.738,214.738 387.5,216.5C 385.596,216.262 384.262,215.262 383.5,213.5 Z"/></g>
<g><path style="opacity:0.251" fill="#515151" d="M 387.5,216.5 C 389.027,216.427 390.027,217.094 390.5,218.5C 388.973,218.573 387.973,217.906 387.5,216.5 Z"/></g>
<g><path style="opacity:0.31" fill="#4d4d4d" d="M 461.5,221.5 C 462.906,221.973 463.573,222.973 463.5,224.5C 462.094,224.027 461.427,223.027 461.5,221.5 Z"/></g>
<g><path style="opacity:0.459" fill="#5d5d5d" d="M 293.5,221.5 C 293.833,221.5 294.167,221.5 294.5,221.5C 294.416,225.837 293.416,229.837 291.5,233.5C 292.167,229.5 292.833,225.5 293.5,221.5 Z"/></g>
<g><path style="opacity:0.941" fill="#808080" d="M 402.5,224.5 C 405.491,224.166 407.824,225.166 409.5,227.5C 406.843,227.065 404.509,226.065 402.5,224.5 Z"/></g>
<g><path style="opacity:0.2" fill="#454545" d="M 463.5,224.5 C 464.906,224.973 465.573,225.973 465.5,227.5C 464.094,227.027 463.427,226.027 463.5,224.5 Z"/></g>
<g><path style="opacity:0.753" fill="#676767" d="M 120.5,224.5 C 120.829,227.228 120.163,229.562 118.5,231.5C 118.721,228.933 119.388,226.599 120.5,224.5 Z"/></g>
<g><path style="opacity:0.8" fill="#787878" d="M 415.5,229.5 C 417.698,229.12 419.365,229.787 420.5,231.5C 418.597,231.204 416.93,230.537 415.5,229.5 Z"/></g>
<g><path style="opacity:0.161" fill="#4f4f4f" d="M 154.5,228.5 C 154.749,232.458 154.082,236.124 152.5,239.5C 152.646,235.613 153.313,231.946 154.5,228.5 Z"/></g>
<g><path style="opacity:0.659" fill="#5d5d5d" d="M 218.5,229.5 C 219.537,230.93 220.204,232.597 220.5,234.5C 218.787,233.365 218.12,231.698 218.5,229.5 Z"/></g>
<g><path style="opacity:0.376" fill="#555555" d="M 466.5,229.5 C 467.924,231.515 468.59,233.848 468.5,236.5C 467.076,234.485 466.41,232.152 466.5,229.5 Z"/></g>
<g><path style="opacity:0.443" fill="#747474" d="M 430.5,235.5 C 432.027,235.427 433.027,236.094 433.5,237.5C 431.973,237.573 430.973,236.906 430.5,235.5 Z"/></g>
<g><path style="opacity:0.431" fill="#686868" d="M 115.5,238.5 C 115.573,240.027 114.906,241.027 113.5,241.5C 113.427,239.973 114.094,238.973 115.5,238.5 Z"/></g>
<g><path style="opacity:0.376" fill="#606060" d="M 288.5,239.5 C 288.573,241.027 287.906,242.027 286.5,242.5C 286.427,240.973 287.094,239.973 288.5,239.5 Z"/></g>
<g><path style="opacity:0.749" fill="#989898" d="M 113.5,241.5 C 112.833,244.167 111.167,245.833 108.5,246.5C 109.833,244.5 111.5,242.833 113.5,241.5 Z"/></g>
<g><path style="opacity:0.416" fill="#626262" d="M 223.5,241.5 C 224.906,241.973 225.573,242.973 225.5,244.5C 224.094,244.027 223.427,243.027 223.5,241.5 Z"/></g>
<g><path style="opacity:0.514" fill="#6a6a6a" d="M 378.5,248.5 C 377.5,248.5 376.5,248.5 375.5,248.5C 375.957,246.443 376.957,246.443 378.5,248.5 Z"/></g>
<g><path style="opacity:0.671" fill="#717171" d="M 106.5,247.5 C 106.027,248.906 105.027,249.573 103.5,249.5C 103.973,248.094 104.973,247.427 106.5,247.5 Z"/></g>
<g><path style="opacity:0.714" fill="#898989" d="M 284.5,244.5 C 283.5,247.5 281.5,249.5 278.5,250.5C 280.167,248.167 282.167,246.167 284.5,244.5 Z"/></g>
<g><path style="opacity:0.714" fill="#7b7b7b" d="M 100.5,250.5 C 98.4855,251.924 96.1522,252.59 93.5,252.5C 95.5145,251.076 97.8478,250.41 100.5,250.5 Z"/></g>
<g><path style="opacity:0.871" fill="#787878" d="M 233.5,251.5 C 234.71,251.932 235.71,252.599 236.5,253.5C 234.821,253.715 233.821,253.048 233.5,251.5 Z"/></g>
<g><path style="opacity:0.843" fill="#676767" d="M 194.5,255.5 C 196.446,256.035 197.446,257.368 197.5,259.5C 196.026,258.564 195.026,257.23 194.5,255.5 Z"/></g>
<g><path style="opacity:0.063" fill="#414141" d="M 241.5,255.5 C 245.011,255.899 248.344,256.566 251.5,257.5C 248.813,257.664 246.146,257.497 243.5,257C 242.584,256.722 241.918,256.222 241.5,255.5 Z"/></g>
<g><path style="opacity:0.514" fill="#5a5a5a" d="M 399.5,257.5 C 406.809,258.248 414.142,258.582 421.5,258.5C 421.5,258.833 421.5,259.167 421.5,259.5C 415.491,259.666 409.491,259.499 403.5,259C 401.942,258.79 400.609,258.29 399.5,257.5 Z"/></g>
<g><path style="opacity:0.604" fill="#888888" d="M 429.5,257.5 C 427.162,259.04 424.495,259.706 421.5,259.5C 421.5,259.167 421.5,258.833 421.5,258.5C 424.167,258.167 426.833,257.833 429.5,257.5 Z"/></g>
<g><path style="opacity:0.471" fill="#4d4d4d" d="M 200.5,263.5 C 202.749,264.08 204.415,265.413 205.5,267.5C 203.251,266.92 201.585,265.587 200.5,263.5 Z"/></g>
<g><path style="opacity:0.298" fill="#545454" d="M 208.5,270.5 C 210.027,270.427 211.027,271.094 211.5,272.5C 209.973,272.573 208.973,271.906 208.5,270.5 Z"/></g>
<g><path style="opacity:0.482" fill="#545454" d="M 366.5,268.5 C 366.366,270.292 366.699,271.958 367.5,273.5C 364.207,272.68 363.874,271.013 366.5,268.5 Z"/></g>
<g><path style="opacity:0.306" fill="#5e5e5e" d="M 211.5,272.5 C 213.027,272.427 214.027,273.094 214.5,274.5C 212.973,274.573 211.973,273.906 211.5,272.5 Z"/></g>
<g><path style="opacity:0.224" fill="#525252" d="M 367.5,273.5 C 369.027,273.427 370.027,274.094 370.5,275.5C 368.973,275.573 367.973,274.906 367.5,273.5 Z"/></g>
<g><path style="opacity:0.149" fill="#474747" d="M 218.5,276.5 C 220.027,276.427 221.027,277.094 221.5,278.5C 219.973,278.573 218.973,277.906 218.5,276.5 Z"/></g>
<g><path style="opacity:0.71" fill="#6d6d6d" d="M 375.5,277.5 C 379.162,277.723 382.495,278.723 385.5,280.5C 381.838,280.277 378.505,279.277 375.5,277.5 Z"/></g>
<g><path style="opacity:0.725" fill="#b5b5b5" d="M 297.5,267.5 C 298.485,271.634 298.818,275.968 298.5,280.5C 308.167,280.5 317.833,280.5 327.5,280.5C 327.5,280.833 327.5,281.167 327.5,281.5C 317.5,281.5 307.5,281.5 297.5,281.5C 297.5,276.833 297.5,272.167 297.5,267.5 Z"/></g>
</svg>